#!OML:ASF H:\Punching\Project 1\Capture day 1\Session 1\female.ASF
:FULLY-SPECIFIED
:DEGREES
332
root -0.14282 14.9585 -1.75985 8.1596 -0.89932 -0.711704
lowerback 2.79087 -0.668911 0.521656
upperback -5.88925 -0.898683 -0.471935
thorax -7.73662 -0.491325 -0.701702
lowerneck -12.7155 2.72465 9.48093
upperneck 31.8488 4.19738 -8.3927
head 13.1517 1.91619 -4.33962
rclavicle -3.77691e-015 6.16232e-015
rhumerus 31.9854 11.8299 -62.2992
rradius 65.7014
rwrist 0.0535716
rhand 29.7159 -34.4549
rfingers 7.12502
rthumb 53.4513 -53.6572
lclavicle -3.77691e-015 6.16232e-015
lhumerus 27.3438 -9.89167 56.8968
lradius 79.678
lwrist -9.49708
lhand 34.4189 25.0894
lfingers 7.12502
lthumb 57.6298 41.1384
rfemur -26.2987 -5.10193 16.8438
rtibia 49.5017
rfoot -27.8109 -8.72034
rtoes -13.031
lfemur -27.1376 1.78277 -16.7556
ltibia 49.5399
lfoot -25.3034 9.58451
ltoes -13.1808
333
root -0.142597 14.9588 -1.75709 8.15442 -0.893667 -0.709222
lowerback 2.78851 -0.670922 0.519024
upperback -5.88867 -0.901794 -0.475337
thorax -7.73469 -0.492811 -0.703529
lowerneck -12.6739 2.75478 9.51424
upperneck 31.8457 4.24838 -8.42673
head 13.1492 1.93939 -4.35149
rclavicle -1.36913e-014 -9.14409e-015
rhumerus 31.9739 11.8305 -62.314
rradius 65.6977
rwrist 0.0761355
rhand 29.7718 -34.4313
rfingers 7.12502
rthumb 53.5017 -53.6007
lclavicle -1.36913e-014 -9.14409e-015
lhumerus 27.3438 -9.88553 56.9107
lradius 79.6857
lwrist -9.49206
lhand 34.4124 25.0752
lfingers 7.12502
lthumb 57.6241 41.1291
rfemur -26.2785 -5.10008 16.8389
rtibia 49.5123
rfoot -27.8323 -8.72658
rtoes -12.9458
lfemur -27.1225 1.7778 -16.7596
ltibia 49.5448
lfoot -25.3001 9.59746
ltoes -13.2036
334
root -0.142972 14.9585 -1.75484 8.16004 -0.882231 -0.694386
lowerback 2.78441 -0.668712 0.498011
upperback -5.89243 -0.900801 -0.483652
thorax -7.7361 -0.491364 -0.700602
lowerneck -12.6822 2.78851 9.55187
upperneck 31.8723 4.2935 -8.43885
head 13.1693 1.96267 -4.35749
rclavicle 2.41523e-014 1.19271e-015
rhumerus 31.957 11.8241 -62.3123
rradius 65.7083
rwrist 0.0780283
rhand 29.7438 -34.4451
rfingers 7.12502
rthumb 53.4765 -53.631
lclavicle 2.41523e-014 1.19271e-015
lhumerus 27.3566 -9.89133 56.9352
lradius 79.6922
lwrist -9.47605
lhand 34.3993 25.0742
lfingers 7.12502
lthumb 57.6126 41.1382
rfemur -26.2803 -5.09926 16.823
rtibia 49.5252
rfoot -27.8329 -8.74053
rtoes -12.9855
lfemur -27.1246 1.76918 -16.7729
ltibia 49.5489
lfoot -25.3188 9.57539
ltoes -13.1359
335
root -0.143838 14.9575 -1.75356 8.16222 -0.891623 -0.730135
lowerback 2.79085 -0.646881 0.525648
upperback -5.8707 -0.87021 -0.494528
thorax -7.71655 -0.47818 -0.73043
lowerneck -12.8197 2.83867 9.67744
upperneck 31.9464 4.34475 -8.49603
head 13.2426 1.9917 -4.39882
rclavicle -3.76448e-015 1.98785e-015
rhumerus 31.9654 11.7437 -62.3308
rradius 65.6933
rwrist 0.0979648
rhand 29.7435 -34.4247
rfingers 7.12502
rthumb 53.4762 -53.6108
lclavicle -3.76448e-015 1.98785e-015
lhumerus 27.4312 -9.90741 56.9357
lradius 79.6859
lwrist -9.48254
lhand 34.4041 25.0123
lfingers 7.12502
lthumb 57.6169 41.0725
rfemur -26.2866 -5.06328 16.8716
rtibia 49.5365
rfoot -27.8117 -8.79853
rtoes -13.0261
lfemur -27.1329 1.79676 -16.7307
ltibia 49.5617
lfoot -25.3243 9.57183
ltoes -13.1914
336
root -0.144149 14.9572 -1.75184 8.15824 -0.892476 -0.70836
lowerback 2.79465 -0.64139 0.499068
upperback -5.86715 -0.865234 -0.504381
thorax -7.71457 -0.474456 -0.726323
lowerneck -12.7801 2.86626 9.66696
upperneck 31.936 4.37892 -8.45614
head 13.2327 2.01138 -4.37498
rclavicle 1.05356e-014 1.59028e-015
rhumerus 31.955 11.737 -62.3321
rradius 65.6863
rwrist 0.118046
rhand 29.6409 -34.3684
rfingers 7.12502
rthumb 53.3838 -53.6146
lclavicle 1.05356e-014 1.59028e-015
lhumerus 27.4595 -9.90926 56.9621
lradius 79.6771
lwrist -9.48487
lhand 34.4033 25.0058
lfingers 7.12502
lthumb 57.6162 41.0666
rfemur -26.2869 -5.05854 16.8471
rtibia 49.5562
rfoot -27.8274 -8.78419
rtoes -12.9535
lfemur -27.122 1.80354 -16.7517
ltibia 49.5668
lfoot -25.3273 9.54576
ltoes -13.1562
337
root -0.144272 14.9564 -1.7493 8.15616 -0.879328 -0.677197
lowerback 2.79617 -0.644207 0.459797
upperback -5.87546 -0.872092 -0.510669
thorax -7.72399 -0.475752 -0.710214
lowerneck -12.7687 2.91802 9.72656
upperneck 31.9576 4.45032 -8.4799
head 13.2508 2.04784 -4.38536
rclavicle 6.37353e-015 8.94531e-015
rhumerus 31.9242 11.7478 -62.32
rradius 65.711
rwrist 0.0947643
rhand 29.7089 -34.4743
rfingers 7.12502
rthumb 53.4451 -53.6808
lclavicle 6.37353e-015 8.94531e-015
lhumerus 27.4352 -9.91789 56.9892
lradius 79.6809
lwrist -9.49151
lhand 34.3818 24.9729
lfingers 7.12502
lthumb 57.5974 41.0502
rfemur -26.2803 -5.08082 16.8118
rtibia 49.5707
rfoot -27.8433 -8.78409
rtoes -12.9606
lfemur -27.1145 1.79806 -16.7882
ltibia 49.5742
lfoot -25.3337 9.55394
ltoes -13.1919
338
root -0.143817 14.9563 -1.74541 8.14067 -0.872519 -0.667646
lowerback 2.79367 -0.648508 0.448309
upperback -5.86909 -0.878452 -0.508256
thorax -7.71553 -0.478074 -0.700705
lowerneck -12.7281 2.95468 9.70425
upperneck 31.951 4.49646 -8.42521
head 13.243 2.07324 -4.35175
rclavicle 1.78161e-014 -1.19271e-014
rhumerus 31.9256 11.7557 -62.3374
rradius 65.7106
rwrist 0.0944058
rhand 29.7154 -34.4332
rfingers 7.12502
rthumb 53.4509 -53.6358
lclavicle 1.78161e-014 -1.19271e-014
lhumerus 27.4187 -9.91557 57.0193
lradius 79.6851
lwrist -9.50621
lhand 34.371 24.9748
lfingers 7.12502
lthumb 57.5879 41.0603
rfemur -26.2413 -5.09505 16.7978
rtibia 49.5835
rfoot -27.8734 -8.79691
rtoes -12.9876
lfemur -27.0749 1.78733 -16.8007
ltibia 49.5711
lfoot -25.3494 9.56001
ltoes -13.2077
339
root -0.144249 14.9565 -1.74457 8.15762 -0.869258 -0.681184
lowerback 2.79507 -0.648029 0.450587
upperback -5.88616 -0.877367 -0.502916
thorax -7.73468 -0.47759 -0.696386
lowerneck -12.6967 2.99143 9.73082
upperneck 31.9634 4.54365 -8.41246
head 13.2479 2.09982 -4.34464
rclavicle 6.31141e-015 -5.36719e-015
rhumerus 31.9065 11.7703 -62.3406
rradius 65.7056
rwrist 0.0791387
rhand 29.7172 -34.4438
rfingers 7.12502
rthumb 53.4525 -53.6454
lclavicle 6.31141e-015 -5.36719e-015
lhumerus 27.41 -9.94371 57.0157
lradius 79.693
lwrist -9.49725
lhand 34.3833 25.027
lfingers 7.12502
lthumb 57.5987 41.1031
rfemur -26.2598 -5.07452 16.8165
rtibia 49.5842
rfoot -27.8562 -8.82574
rtoes -13.0224
lfemur -27.096 1.79925 -16.7842
ltibia 49.5737
lfoot -25.3396 9.54917
ltoes -13.2218
340
root -0.143431 14.9556 -1.74208 8.15104 -0.865723 -0.663977
lowerback 2.78914 -0.649797 0.439798
upperback -5.89048 -0.880731 -0.50642
thorax -7.73581 -0.478742 -0.693741
lowerneck -12.6388 3.02906 9.74427
upperneck 31.9527 4.59403 -8.39109
head 13.237 2.12759 -4.33019
rclavicle -2.17421e-014 -1.78906e-015
rhumerus 31.8835 11.7914 -62.3438
rradius 65.7077
rwrist 0.0621523
rhand 29.7387 -34.4969
rfingers 7.12502
rthumb 53.4719 -53.6858
lclavicle -2.17421e-014 -1.78906e-015
lhumerus 27.4096 -9.95028 57.0281
lradius 79.6713
lwrist -9.48244
lhand 34.3825 25.0064
lfingers 7.12502
lthumb 57.598 41.0832
rfemur -26.2432 -5.09276 16.7903
rtibia 49.5837
rfoot -27.8657 -8.80964
rtoes -12.999
lfemur -27.0762 1.78846 -16.8068
ltibia 49.5742
lfoot -25.3421 9.54944
ltoes -13.2374
341
root -0.142761 14.9567 -1.73907 8.14904 -0.850544 -0.683392
lowerback 2.77291 -0.651586 0.46935
upperback -5.87888 -0.880744 -0.500713
thorax -7.71421 -0.480236 -0.704541
lowerneck -12.6443 3.07539 9.7665
upperneck 31.947 4.65147 -8.37632
head 13.2434 2.15753 -4.31909
rclavicle -1.50331e-015 3.97569e-016
rhumerus 31.8924 11.7852 -62.3543
rradius 65.7043
rwrist 0.0685892
rhand 29.7279 -34.4338
rfingers 7.12502
rthumb 53.4622 -53.6291
lclavicle -1.50331e-015 3.97569e-016
lhumerus 27.3856 -9.96625 57.0371
lradius 79.667
lwrist -9.49
lhand 34.5021 24.9113
lfingers 7.12502
lthumb 57.7026 40.8966
rfemur -26.2184 -5.11761 16.8102
rtibia 49.5734
rfoot -27.8659 -8.79922
rtoes -13.0471
lfemur -27.0641 1.77538 -16.7868
ltibia 49.5781
lfoot -25.3615 9.55869
ltoes -13.2421
342
root -0.142743 14.9562 -1.73673 8.1557 -0.855543 -0.691278
lowerback 2.76584 -0.645308 0.47494
upperback -5.87991 -0.872162 -0.50392
thorax -7.71118 -0.476451 -0.711919
lowerneck -12.6312 3.12059 9.80196
upperneck 31.9318 4.70006 -8.34722
head 13.2407 2.18727 -4.30545
rclavicle -4.70871e-015 3.37934e-015
rhumerus 31.88 11.7787 -62.368
rradius 65.697
rwrist 0.086185
rhand 29.7163 -34.4745
rfingers 7.12502
rthumb 53.4517 -53.6766
lclavicle -4.70871e-015 3.37934e-015
lhumerus 27.4049 -10.0035 57.0308
lradius 79.6518
lwrist -9.49246
lhand 34.5213 24.9132
lfingers 7.12502
lthumb 57.7194 40.8838
rfemur -26.2155 -5.1177 16.8181
rtibia 49.5662
rfoot -27.8753 -8.78356
rtoes -12.9813
lfemur -27.0606 1.78497 -16.7794
ltibia 49.58
lfoot -25.3725 9.56191
ltoes -13.2982
343
root -0.142129 14.9565 -1.73446 8.15223 -0.843397 -0.68082
lowerback 2.77755 -0.642779 0.479068
upperback -5.88856 -0.869157 -0.513885
thorax -7.72757 -0.475618 -0.724797
lowerneck -12.6077 3.16092 9.84858
upperneck 31.9189 4.74553 -8.33587
head 13.2371 2.21501 -4.30162
rclavicle -1.37907e-015 -2.18663e-015
rhumerus 31.8469 11.7884 -62.3554
rradius 65.7048
rwrist 0.0659531
rhand 29.754 -34.4733
rfingers 7.12502
rthumb 53.4856 -53.6533
lclavicle -1.37907e-015 -2.18663e-015
lhumerus 27.409 -10.0554 57.0245
lradius 79.6342
lwrist -9.48605
lhand 34.4074 24.9973
lfingers 7.12502
lthumb 57.6197 41.0551
rfemur -26.1955 -5.14067 16.8023
rtibia 49.5584
rfoot -27.8835 -8.77204
rtoes -12.9659
lfemur -27.0487 1.76754 -16.7904
ltibia 49.5816
lfoot -25.395 9.54139
ltoes -13.1793
344
root -0.141988 14.9568 -1.73217 8.15353 -0.837004 -0.701124
lowerback 2.772 -0.635153 0.506478
upperback -5.89559 -0.8571 -0.51391
thorax -7.73216 -0.471352 -0.741345
lowerneck -12.5716 3.19985 9.86539
upperneck 31.9001 4.78469 -8.2847
head 13.2255 2.24155 -4.27701
rclavicle 9.60378e-015 -7.95139e-015
rhumerus 31.8204 11.7793 -62.3659
rradius 65.6986
rwrist 0.0634078
rhand 29.7883 -34.4708
rfingers 7.12502
rthumb 53.5165 -53.6305
lclavicle 9.60378e-015 -7.95139e-015
lhumerus 27.3744 -10.0966 57.0431
lradius 79.6271
lwrist -9.51027
lhand 34.4454 24.939
lfingers 7.12502
lthumb 57.653 40.9677
rfemur -26.1837 -5.15379 16.8274
rtibia 49.5517
rfoot -27.8849 -8.77849
rtoes -13.0235
lfemur -27.041 1.76623 -16.7685
ltibia 49.5808
lfoot -25.3825 9.56217
ltoes -13.2697
345
root -0.141352 14.956 -1.72939 8.15106 -0.83743 -0.672719
lowerback 2.76062 -0.632004 0.48134
upperback -5.89761 -0.855098 -0.52177
thorax -7.72736 -0.469131 -0.735808
lowerneck -12.4957 3.23557 9.90912
upperneck 31.8319 4.82788 -8.27946
head 13.1866 2.26765 -4.2733
rclavicle 1.44243e-014 -9.93923e-015
rhumerus 31.8068 11.7923 -62.3686
rradius 65.7042
rwrist 0.0707085
rhand 29.7717 -34.5173
rfingers 7.12502
rthumb 53.5016 -53.6868
lclavicle 1.44243e-014 -9.93923e-015
lhumerus 27.364 -10.1359 57.0487
lradius 79.6063
lwrist -9.53404
lhand 34.4029 24.9562
lfingers 7.12502
lthumb 57.6158 41.0174
rfemur -26.166 -5.17386 16.7903
rtibia 49.5519
rfoot -27.9034 -8.76751
rtoes -13.0738
lfemur -27.0246 1.76051 -16.8033
ltibia 49.5765
lfoot -25.3953 9.55703
ltoes -13.2577
346
root -0.140453 14.9564 -1.72672 8.13835 -0.826651 -0.683689
lowerback 2.7672 -0.63393 0.498522
upperback -5.90632 -0.856029 -0.513985
thorax -7.74078 -0.470406 -0.737071
lowerneck -12.4537 3.27421 9.94203
upperneck 31.8083 4.87404 -8.26318
head 13.1739 2.29488 -4.26457
rclavicle 9.05713e-015 6.75868e-015
rhumerus 31.7732 11.8246 -62.3509
rradius 65.7173
rwrist 0.064216
rhand 29.8365 -34.5622
rfingers 7.12502
rthumb 53.5599 -53.6934
lclavicle 9.05713e-015 6.75868e-015
lhumerus 27.3601 -10.1725 57.0472
lradius 79.6079
lwrist -9.55131
lhand 34.4325 24.9508
lfingers 7.12502
lthumb 57.6417 40.9895
rfemur -26.1326 -5.19996 16.7977
rtibia 49.5502
rfoot -27.9253 -8.74088
rtoes -13.0067
lfemur -26.9967 1.74674 -16.7942
ltibia 49.5695
lfoot -25.3998 9.56719
ltoes -13.255
